
<svg 
	 xmlns="http://www.w3.org/2000/svg"
	 x="0px" y="0px" width="197px" height="55px" viewBox="0 0 197 55" enable-background="new 0 0 197 55">

<path fill="#EE8D33" d="M0,0h16.704c7.199,0,12.651,1.036,16.354,3.108c3.703,2.072,5.555,5.671,5.555,10.799
	c0,3.212-0.803,5.892-2.408,8.041c-1.606,2.15-3.911,3.51-6.915,4.079v0.389c2.02,0.416,3.846,1.088,5.477,2.02
	c1.632,0.933,2.939,2.292,3.923,4.079c0.983,1.787,1.477,4.13,1.477,7.031c0,5.024-1.787,8.935-5.361,11.731
	c-3.574,2.797-8.417,4.195-14.528,4.195H0V0z M9.945,22.608h8.08c3.936,0,6.643-0.634,8.119-1.903
	c1.477-1.269,2.214-3.095,2.214-5.478c0-2.486-0.894-4.273-2.68-5.361c-1.787-1.088-4.598-1.631-8.43-1.631H9.945V22.608z
	 M9.945,30.61v16.549h9.012c4.041,0,6.849-0.79,8.43-2.37c1.579-1.579,2.37-3.639,2.37-6.176c0-2.434-0.816-4.377-2.448-5.827
	c-1.631-1.45-4.571-2.176-8.817-2.176H9.945z"/>
<path fill="#FCB914" d="M48.167,8.382h13.061c5.629,0,9.892,0.81,12.787,2.43c2.895,1.62,4.344,4.434,4.344,8.444
	c0,2.512-0.628,4.607-1.883,6.287c-1.256,1.681-3.058,2.744-5.406,3.189v0.303c1.579,0.325,3.007,0.851,4.283,1.581
	c1.275,0.729,2.298,1.791,3.067,3.188c0.769,1.397,1.154,3.23,1.154,5.499c0,3.928-1.397,6.985-4.191,9.172
	c-2.795,2.187-6.582,3.281-11.36,3.281H48.167V8.382z M55.942,26.059h6.318c3.077,0,5.194-0.495,6.348-1.488
	c1.154-0.992,1.731-2.419,1.731-4.283c0-1.944-0.699-3.341-2.096-4.191c-1.397-0.851-3.595-1.276-6.591-1.276h-5.71V26.059z
	 M55.942,32.316v12.939h7.047c3.159,0,5.355-0.617,6.591-1.853c1.235-1.234,1.853-2.844,1.853-4.829
	c0-1.904-0.638-3.423-1.914-4.557c-1.275-1.132-3.575-1.7-6.895-1.7H55.942z"/>
<path fill="#FCB914" d="M127.259,30.008c0,4.495-0.739,8.413-2.218,11.754c-1.479,3.342-3.734,5.945-6.772,7.807
	c-3.038,1.864-6.845,2.795-11.422,2.795c-4.656,0-8.484-0.931-11.48-2.795c-2.998-1.861-5.235-4.475-6.713-7.836
	c-1.479-3.362-2.217-7.29-2.217-11.786c0-4.455,0.739-8.353,2.217-11.694c1.478-3.341,3.726-5.933,6.743-7.776
	c3.017-1.842,6.854-2.764,11.512-2.764c4.577,0,8.373,0.921,11.391,2.764c3.017,1.843,5.263,4.435,6.742,7.776
	C126.52,21.595,127.259,25.513,127.259,30.008z M94.637,30.008c0,4.9,0.982,8.747,2.947,11.542c1.963,2.794,5.05,4.192,9.262,4.192
	c4.334,0,7.451-1.397,9.356-4.192c1.902-2.795,2.854-6.641,2.854-11.542c0-4.9-0.952-8.748-2.854-11.542
	c-1.905-2.794-5.003-4.191-9.295-4.191c-4.252,0-7.36,1.397-9.324,4.191C95.619,21.26,94.637,25.108,94.637,30.008z"/>
<path fill="#FCB914" d="M147.122,33.046c-1.457-0.648-2.692-1.083-3.705-1.307c-1.013-0.222-1.966-0.334-2.854-0.334
	c-1.135,0-2.33,0.345-3.584,1.033c-1.256,0.689-2.37,1.539-3.341,2.551v-6.075c1.943-2.146,4.433-3.22,7.471-3.22
	c1.174,0,2.349,0.132,3.524,0.395c1.174,0.264,2.713,0.78,4.616,1.549c1.457,0.648,2.693,1.083,3.706,1.306
	c1.011,0.223,1.963,0.334,2.854,0.334c1.174,0,2.379-0.343,3.614-1.032c1.234-0.688,2.34-1.539,3.311-2.552v6.014
	c-1.983,2.187-4.475,3.281-7.471,3.281c-1.135,0-2.309-0.122-3.524-0.365C150.525,34.381,148.984,33.856,147.122,33.046z"/>
<path fill="#FCB914" d="M185.697,5.587l-1.216,11.239l11.239-3.22l0.973,6.804l-10.511,0.79l6.864,9.111l-6.195,3.281l-4.8-9.781
	l-4.313,9.781l-6.379-3.281l6.744-9.111l-10.388-0.851l1.032-6.743l11.058,3.22L178.59,5.587H185.697z"/>
</svg>
